<svg width="192" height="192" viewBox="0 0 192 192" fill="none" xmlns="http://www.w3.org/2000/svg">
<rect width="192" height="192" fill="#18181B"/>
<path d="M43.0256 73.1317H51.4565V85.0784C50.1367 85.5108 48.8055 85.8293 47.4629 86.0341C46.1204 86.2389 44.5957 86.3413 42.8891 86.3413C40.3632 86.3413 38.2356 85.8407 36.5061 84.8395C34.7767 83.8155 33.4569 82.3705 32.5467 80.5045C31.6592 78.6158 31.2155 76.3858 31.2155 73.8144C31.2155 71.2658 31.7161 69.0585 32.7173 67.1925C33.7186 65.3266 35.1522 63.8816 37.0181 62.8576C38.9068 61.8108 41.1824 61.2875 43.8448 61.2875C45.2101 61.2875 46.4958 61.4126 47.7019 61.6629C48.9307 61.9132 50.0684 62.266 51.1152 62.7211L49.9547 65.3835C49.09 64.9966 48.1115 64.6667 47.0192 64.3936C45.9497 64.1205 44.8347 63.984 43.6741 63.984C41.7399 63.984 40.0788 64.3822 38.6907 65.1787C37.3026 65.9751 36.2444 67.1129 35.5163 68.592C34.7881 70.0484 34.424 71.7892 34.424 73.8144C34.424 75.7486 34.7312 77.4667 35.3456 78.9685C35.9828 80.4476 36.9726 81.6082 38.3152 82.4501C39.6578 83.2693 41.4213 83.6789 43.6059 83.6789C44.334 83.6789 44.9712 83.6562 45.5173 83.6107C46.0862 83.5424 46.5982 83.4628 47.0533 83.3717C47.5312 83.2807 47.9749 83.1897 48.3845 83.0987V75.8624H43.0256V73.1317ZM63.9336 67.3632C65.5037 67.3632 66.8463 67.7045 67.9613 68.3872C69.0991 69.0699 69.9638 70.037 70.5555 71.2885C71.1699 72.5173 71.4771 73.9623 71.4771 75.6235V77.4325H58.9501C58.9956 79.5033 59.519 81.0848 60.5203 82.1771C61.5443 83.2466 62.9665 83.7813 64.7869 83.7813C65.9475 83.7813 66.9715 83.6789 67.8589 83.4741C68.7692 83.2466 69.7021 82.928 70.6579 82.5184V85.1467C69.7249 85.5563 68.8033 85.8521 67.8931 86.0341C66.9828 86.2389 65.902 86.3413 64.6504 86.3413C62.921 86.3413 61.385 85.9886 60.0424 85.2832C58.7226 84.5778 57.6872 83.531 56.9363 82.1429C56.2081 80.7321 55.844 79.014 55.844 76.9888C55.844 74.9863 56.174 73.2683 56.8339 71.8347C57.5165 70.4011 58.4609 69.2974 59.6669 68.5237C60.8957 67.75 62.318 67.3632 63.9336 67.3632ZM63.8995 69.8208C62.4659 69.8208 61.3281 70.2873 60.4861 71.2203C59.6669 72.1305 59.1777 73.4048 59.0184 75.0432H68.3368C68.3368 73.9964 68.1775 73.0862 67.8589 72.3125C67.5404 71.5388 67.0511 70.9358 66.3912 70.5035C65.754 70.0484 64.9235 69.8208 63.8995 69.8208ZM82.2445 83.8837C82.6996 83.8837 83.1661 83.8496 83.644 83.7813C84.1219 83.6903 84.5087 83.5993 84.8045 83.5083V85.7952C84.486 85.9545 84.0308 86.0796 83.4392 86.1707C82.8476 86.2844 82.2787 86.3413 81.7325 86.3413C80.7768 86.3413 79.8893 86.182 79.0701 85.8635C78.2737 85.5221 77.6252 84.9419 77.1245 84.1227C76.6239 83.3035 76.3736 82.1543 76.3736 80.6752V70.0256H73.7795V68.592L76.4077 67.3973L77.6024 63.5061H79.3773V67.7045H84.668V70.0256H79.3773V80.6069C79.3773 81.722 79.639 82.5525 80.1624 83.0987C80.7085 83.622 81.4026 83.8837 82.2445 83.8837ZM104.469 61.6288C106.494 61.6288 108.155 61.8905 109.452 62.4139C110.772 62.9145 111.75 63.6768 112.387 64.7008C113.025 65.7248 113.343 67.0105 113.343 68.5579C113.343 69.8549 113.104 70.9358 112.626 71.8005C112.149 72.6652 111.534 73.3593 110.783 73.8827C110.055 74.3833 109.281 74.7815 108.462 75.0773L115.152 86H111.568L105.663 75.9307H100.816V86H97.7443V61.6288H104.469ZM104.298 64.2912H100.816V73.3365H104.469C105.788 73.3365 106.869 73.1659 107.711 72.8245C108.553 72.4604 109.168 71.9371 109.554 71.2544C109.964 70.5717 110.169 69.7184 110.169 68.6944C110.169 67.6249 109.953 66.7716 109.52 66.1344C109.111 65.4972 108.474 65.0308 107.609 64.7349C106.744 64.4391 105.64 64.2912 104.298 64.2912ZM125.634 67.3632C127.204 67.3632 128.546 67.7045 129.661 68.3872C130.799 69.0699 131.664 70.037 132.255 71.2885C132.87 72.5173 133.177 73.9623 133.177 75.6235V77.4325H120.65C120.696 79.5033 121.219 81.0848 122.22 82.1771C123.244 83.2466 124.666 83.7813 126.487 83.7813C127.647 83.7813 128.671 83.6789 129.559 83.4741C130.469 83.2466 131.402 82.928 132.358 82.5184V85.1467C131.425 85.5563 130.503 85.8521 129.593 86.0341C128.683 86.2389 127.602 86.3413 126.35 86.3413C124.621 86.3413 123.085 85.9886 121.742 85.2832C120.423 84.5778 119.387 83.531 118.636 82.1429C117.908 80.7321 117.544 79.014 117.544 76.9888C117.544 74.9863 117.874 73.2683 118.534 71.8347C119.217 70.4011 120.161 69.2974 121.367 68.5237C122.596 67.75 124.018 67.3632 125.634 67.3632ZM125.599 69.8208C124.166 69.8208 123.028 70.2873 122.186 71.2203C121.367 72.1305 120.878 73.4048 120.718 75.0432H130.037C130.037 73.9964 129.878 73.0862 129.559 72.3125C129.24 71.5388 128.751 70.9358 128.091 70.5035C127.454 70.0484 126.623 69.8208 125.599 69.8208ZM144.764 67.3973C146.994 67.3973 148.644 67.8866 149.713 68.8651C150.783 69.8436 151.317 71.4023 151.317 73.5413V86H149.133L148.553 83.4059H148.416C147.893 84.0658 147.346 84.6233 146.778 85.0784C146.231 85.5108 145.594 85.8293 144.866 86.0341C144.161 86.2389 143.296 86.3413 142.272 86.3413C141.18 86.3413 140.19 86.1479 139.302 85.7611C138.438 85.3742 137.755 84.7826 137.254 83.9861C136.754 83.1669 136.503 82.1429 136.503 80.9141C136.503 79.0937 137.22 77.6942 138.654 76.7157C140.087 75.7145 142.295 75.1684 145.276 75.0773L148.382 74.9749V73.8827C148.382 72.358 148.052 71.2999 147.392 70.7083C146.732 70.1166 145.799 69.8208 144.593 69.8208C143.637 69.8208 142.727 69.9687 141.862 70.2645C140.998 70.5376 140.19 70.8562 139.439 71.2203L138.517 68.9675C139.314 68.5351 140.258 68.171 141.35 67.8752C142.443 67.5566 143.58 67.3973 144.764 67.3973ZM145.651 77.1595C143.376 77.2505 141.794 77.6146 140.907 78.2517C140.042 78.8889 139.61 79.7877 139.61 80.9483C139.61 81.9723 139.917 82.7232 140.531 83.2011C141.168 83.6789 141.976 83.9179 142.955 83.9179C144.502 83.9179 145.788 83.4969 146.812 82.6549C147.836 81.7902 148.348 80.4704 148.348 78.6955V77.0571L145.651 77.1595ZM159.972 86H156.968V60.0587H159.972V86ZM63.7468 132H50.1276V107.629H63.7468V110.325H53.1996V117.937H63.1324V120.599H53.1996V129.303H63.7468V132ZM80.5972 126.948C80.5972 128.132 80.3014 129.121 79.7097 129.918C79.1181 130.714 78.2761 131.317 77.1839 131.727C76.0916 132.137 74.7945 132.341 73.2927 132.341C72.0184 132.341 70.9147 132.239 69.9817 132.034C69.0715 131.829 68.2637 131.545 67.5583 131.181V128.45C68.2864 128.814 69.1625 129.156 70.1865 129.474C71.2333 129.77 72.2914 129.918 73.3609 129.918C74.8856 129.918 75.9892 129.679 76.6719 129.201C77.3545 128.7 77.6959 128.041 77.6959 127.221C77.6959 126.766 77.5707 126.357 77.3204 125.993C77.0701 125.628 76.615 125.264 75.9551 124.9C75.3179 124.536 74.3963 124.127 73.1903 123.671C72.007 123.216 70.9944 122.761 70.1524 122.306C69.3104 121.851 68.6619 121.305 68.2068 120.668C67.7517 120.031 67.5241 119.211 67.5241 118.21C67.5241 116.663 68.1499 115.468 69.4015 114.626C70.6758 113.784 72.3369 113.363 74.3849 113.363C75.5 113.363 76.5353 113.477 77.4911 113.705C78.4696 113.909 79.3798 114.205 80.2217 114.592L79.1977 116.981C78.6971 116.754 78.1624 116.56 77.5935 116.401C77.0473 116.219 76.4898 116.082 75.9209 115.991C75.352 115.878 74.7718 115.821 74.1801 115.821C72.9513 115.821 72.007 116.026 71.3471 116.435C70.7099 116.822 70.3913 117.357 70.3913 118.039C70.3913 118.54 70.5392 118.972 70.8351 119.337C71.1309 119.678 71.6201 120.019 72.3028 120.361C73.0082 120.679 73.9412 121.066 75.1017 121.521C76.2623 121.953 77.2521 122.397 78.0713 122.852C78.8905 123.307 79.5163 123.865 79.9487 124.525C80.381 125.162 80.5972 125.97 80.5972 126.948ZM91.1279 129.884C91.583 129.884 92.0495 129.85 92.5273 129.781C93.0052 129.69 93.392 129.599 93.6879 129.508V131.795C93.3693 131.954 92.9142 132.08 92.3225 132.171C91.7309 132.284 91.162 132.341 90.6159 132.341C89.6601 132.341 88.7727 132.182 87.9535 131.863C87.157 131.522 86.5085 130.942 86.0079 130.123C85.5072 129.303 85.2569 128.154 85.2569 126.675V116.026H82.6628V114.592L85.2911 113.397L86.4857 109.506H88.2607V113.705H93.5513V116.026H88.2607V126.607C88.2607 127.722 88.5224 128.553 89.0457 129.099C89.5919 129.622 90.2859 129.884 91.1279 129.884ZM104.28 113.397C106.51 113.397 108.16 113.887 109.23 114.865C110.299 115.844 110.834 117.402 110.834 119.541V132H108.649L108.069 129.406H107.933C107.409 130.066 106.863 130.623 106.294 131.078C105.748 131.511 105.111 131.829 104.383 132.034C103.677 132.239 102.813 132.341 101.789 132.341C100.696 132.341 99.7065 132.148 98.8191 131.761C97.9544 131.374 97.2717 130.783 96.7711 129.986C96.2704 129.167 96.0201 128.143 96.0201 126.914C96.0201 125.094 96.7369 123.694 98.1705 122.716C99.6041 121.714 101.811 121.168 104.792 121.077L107.899 120.975V119.883C107.899 118.358 107.569 117.3 106.909 116.708C106.249 116.117 105.316 115.821 104.11 115.821C103.154 115.821 102.244 115.969 101.379 116.265C100.514 116.538 99.7065 116.856 98.9556 117.22L98.034 114.967C98.8304 114.535 99.7748 114.171 100.867 113.875C101.959 113.557 103.097 113.397 104.28 113.397ZM105.168 123.159C102.892 123.25 101.311 123.615 100.423 124.252C99.5586 124.889 99.1263 125.788 99.1263 126.948C99.1263 127.972 99.4335 128.723 100.048 129.201C100.685 129.679 101.493 129.918 102.471 129.918C104.019 129.918 105.304 129.497 106.328 128.655C107.352 127.79 107.864 126.47 107.864 124.695V123.057L105.168 123.159ZM122.595 129.884C123.05 129.884 123.516 129.85 123.994 129.781C124.472 129.69 124.859 129.599 125.155 129.508V131.795C124.836 131.954 124.381 132.08 123.789 132.171C123.198 132.284 122.629 132.341 122.083 132.341C121.127 132.341 120.239 132.182 119.42 131.863C118.624 131.522 117.975 130.942 117.475 130.123C116.974 129.303 116.724 128.154 116.724 126.675V116.026H114.129V114.592L116.758 113.397L117.952 109.506H119.727V113.705H125.018V116.026H119.727V126.607C119.727 127.722 119.989 128.553 120.512 129.099C121.059 129.622 121.753 129.884 122.595 129.884ZM135.884 113.363C137.454 113.363 138.796 113.705 139.911 114.387C141.049 115.07 141.914 116.037 142.505 117.289C143.12 118.517 143.427 119.962 143.427 121.623V123.433H130.9C130.946 125.503 131.469 127.085 132.47 128.177C133.494 129.247 134.916 129.781 136.737 129.781C137.897 129.781 138.921 129.679 139.809 129.474C140.719 129.247 141.652 128.928 142.608 128.518V131.147C141.675 131.556 140.753 131.852 139.843 132.034C138.933 132.239 137.852 132.341 136.6 132.341C134.871 132.341 133.335 131.989 131.992 131.283C130.673 130.578 129.637 129.531 128.886 128.143C128.158 126.732 127.794 125.014 127.794 122.989C127.794 120.986 128.124 119.268 128.784 117.835C129.467 116.401 130.411 115.297 131.617 114.524C132.846 113.75 134.268 113.363 135.884 113.363ZM135.849 115.821C134.416 115.821 133.278 116.287 132.436 117.22C131.617 118.13 131.128 119.405 130.968 121.043H140.287C140.287 119.996 140.128 119.086 139.809 118.313C139.49 117.539 139.001 116.936 138.341 116.503C137.704 116.048 136.873 115.821 135.849 115.821Z" fill="#EF4444"/>
</svg>
