<svg width="512" height="512" viewBox="0 0 512 512" fill="none" xmlns="http://www.w3.org/2000/svg">
<rect width="512" height="512" fill="#18181B"/>
<path d="M114.735 195.351H137.217V227.209C133.698 228.362 130.148 229.212 126.568 229.758C122.987 230.304 118.922 230.577 114.371 230.577C107.635 230.577 101.961 229.242 97.3495 226.572C92.7377 223.841 89.2182 219.988 86.7909 215.012C84.4244 209.976 83.2411 204.029 83.2411 197.172C83.2411 190.375 84.5761 184.489 87.2461 179.513C89.916 174.538 93.739 170.684 98.7149 167.954C103.751 165.162 109.82 163.767 116.919 163.767C120.56 163.767 123.989 164.1 127.205 164.768C130.482 165.435 133.516 166.376 136.307 167.59L133.212 174.689C130.906 173.658 128.297 172.778 125.384 172.05C122.532 171.321 119.559 170.957 116.464 170.957C111.306 170.957 106.877 172.019 103.175 174.143C99.4734 176.267 96.6517 179.301 94.7099 183.245C92.7681 187.129 91.7972 191.771 91.7972 197.172C91.7972 202.33 92.6164 206.911 94.2548 210.916C95.9538 214.86 98.5935 217.955 102.174 220.2C105.754 222.385 110.457 223.477 116.282 223.477C118.224 223.477 119.923 223.416 121.379 223.295C122.896 223.113 124.262 222.901 125.475 222.658C126.75 222.415 127.933 222.173 129.025 221.93V202.633H114.735V195.351ZM170.489 179.969C174.676 179.969 178.257 180.879 181.23 182.699C184.264 184.52 186.57 187.099 188.148 190.436C189.786 193.713 190.605 197.566 190.605 201.996V206.82H157.2C157.322 212.342 158.717 216.559 161.387 219.472C164.118 222.324 167.91 223.75 172.765 223.75C175.86 223.75 178.59 223.477 180.957 222.931C183.384 222.324 185.872 221.475 188.421 220.382V227.391C185.933 228.483 183.475 229.272 181.048 229.758C178.621 230.304 175.738 230.577 172.401 230.577C167.789 230.577 163.693 229.636 160.113 227.755C156.593 225.874 153.832 223.083 151.83 219.381C149.888 215.619 148.917 211.037 148.917 205.637C148.917 200.297 149.797 195.715 151.557 191.892C153.377 188.07 155.896 185.126 159.112 183.063C162.388 181 166.181 179.969 170.489 179.969ZM170.398 186.522C166.575 186.522 163.541 187.766 161.296 190.254C159.112 192.681 157.807 196.079 157.382 200.449H182.231C182.231 197.657 181.807 195.23 180.957 193.167C180.107 191.104 178.803 189.496 177.043 188.343C175.344 187.129 173.129 186.522 170.398 186.522ZM219.319 224.023C220.532 224.023 221.776 223.932 223.051 223.75C224.325 223.508 225.356 223.265 226.145 223.022V229.121C225.296 229.545 224.082 229.879 222.504 230.122C220.927 230.425 219.41 230.577 217.953 230.577C215.405 230.577 213.038 230.152 210.854 229.303C208.73 228.392 207 226.845 205.665 224.66C204.33 222.476 203.663 219.412 203.663 215.467V187.068H196.745V183.245L203.754 180.06L206.94 169.683H211.673V180.879H225.781V187.068H211.673V215.285C211.673 218.259 212.371 220.473 213.766 221.93C215.223 223.325 217.073 224.023 219.319 224.023ZM278.583 164.677C283.983 164.677 288.413 165.375 291.872 166.77C295.391 168.105 298.001 170.138 299.7 172.869C301.399 175.599 302.248 179.028 302.248 183.154C302.248 186.613 301.611 189.496 300.337 191.801C299.063 194.107 297.424 195.958 295.422 197.354C293.48 198.689 291.417 199.751 289.232 200.54L307.073 229.667H297.515L281.768 202.815H268.843V229.667H260.651V164.677H278.583ZM278.127 171.777H268.843V195.897H278.583C282.102 195.897 284.984 195.442 287.23 194.532C289.475 193.561 291.113 192.166 292.145 190.345C293.237 188.525 293.783 186.249 293.783 183.518C293.783 180.666 293.207 178.391 292.054 176.692C290.962 174.993 289.263 173.749 286.957 172.96C284.651 172.171 281.708 171.777 278.127 171.777ZM335.023 179.969C339.21 179.969 342.79 180.879 345.763 182.699C348.797 184.52 351.103 187.099 352.681 190.436C354.319 193.713 355.139 197.566 355.139 201.996V206.82H321.734C321.855 212.342 323.251 216.559 325.921 219.472C328.651 222.324 332.444 223.75 337.298 223.75C340.393 223.75 343.124 223.477 345.49 222.931C347.918 222.324 350.406 221.475 352.954 220.382V227.391C350.466 228.483 348.009 229.272 345.581 229.758C343.154 230.304 340.272 230.577 336.934 230.577C332.322 230.577 328.226 229.636 324.646 227.755C321.127 225.874 318.366 223.083 316.363 219.381C314.421 215.619 313.45 211.037 313.45 205.637C313.45 200.297 314.33 195.715 316.09 191.892C317.911 188.07 320.429 185.126 323.645 183.063C326.922 181 330.714 179.969 335.023 179.969ZM334.932 186.522C331.109 186.522 328.075 187.766 325.83 190.254C323.645 192.681 322.34 196.079 321.916 200.449H346.765C346.765 197.657 346.34 195.23 345.49 193.167C344.641 191.104 343.336 189.496 341.576 188.343C339.877 187.129 337.662 186.522 334.932 186.522ZM386.036 180.06C391.983 180.06 396.383 181.364 399.235 183.974C402.087 186.583 403.513 190.74 403.513 196.444V229.667H397.687L396.14 222.749H395.776C394.38 224.509 392.924 225.995 391.407 227.209C389.95 228.362 388.251 229.212 386.31 229.758C384.428 230.304 382.122 230.577 379.392 230.577C376.479 230.577 373.839 230.061 371.473 229.03C369.167 227.998 367.347 226.42 366.012 224.296C364.677 222.112 364.009 219.381 364.009 216.104C364.009 211.25 365.921 207.518 369.743 204.909C373.566 202.239 379.453 200.782 387.402 200.54L395.685 200.267V197.354C395.685 193.288 394.805 190.466 393.045 188.889C391.285 187.311 388.797 186.522 385.581 186.522C383.033 186.522 380.605 186.917 378.3 187.705C375.994 188.434 373.839 189.283 371.837 190.254L369.379 184.247C371.503 183.094 374.022 182.123 376.934 181.334C379.847 180.484 382.881 180.06 386.036 180.06ZM388.403 206.092C382.335 206.335 378.118 207.306 375.751 209.005C373.445 210.704 372.292 213.101 372.292 216.195C372.292 218.926 373.111 220.929 374.75 222.203C376.449 223.477 378.603 224.114 381.212 224.114C385.339 224.114 388.767 222.992 391.498 220.747C394.228 218.441 395.594 214.921 395.594 210.188V205.819L388.403 206.092ZM426.591 229.667H418.581V160.49H426.591V229.667ZM169.991 353.667H133.673V288.677H169.991V295.868H141.865V316.166H168.353V323.265H141.865V346.476H169.991V353.667ZM214.926 340.195C214.926 343.351 214.137 345.99 212.559 348.114C210.981 350.238 208.736 351.846 205.823 352.939C202.911 354.031 199.452 354.577 195.447 354.577C192.049 354.577 189.106 354.304 186.618 353.758C184.191 353.212 182.036 352.453 180.155 351.482V344.2C182.097 345.171 184.433 346.082 187.164 346.931C189.955 347.72 192.777 348.114 195.629 348.114C199.695 348.114 202.638 347.477 204.458 346.203C206.279 344.868 207.189 343.108 207.189 340.924C207.189 339.71 206.855 338.618 206.188 337.647C205.52 336.676 204.306 335.705 202.547 334.734C200.848 333.763 198.39 332.671 195.174 331.457C192.018 330.244 189.318 329.03 187.073 327.816C184.828 326.603 183.098 325.146 181.885 323.447C180.671 321.748 180.064 319.564 180.064 316.894C180.064 312.767 181.733 309.582 185.07 307.336C188.469 305.091 192.898 303.969 198.36 303.969C201.333 303.969 204.094 304.272 206.643 304.879C209.252 305.425 211.679 306.214 213.924 307.245L211.194 313.617C209.859 313.01 208.433 312.494 206.916 312.07C205.459 311.584 203.973 311.22 202.456 310.977C200.939 310.674 199.391 310.522 197.814 310.522C194.537 310.522 192.018 311.068 190.259 312.161C188.56 313.192 187.71 314.618 187.71 316.439C187.71 317.774 188.104 318.927 188.893 319.897C189.682 320.808 190.987 321.718 192.807 322.628C194.688 323.478 197.176 324.509 200.271 325.723C203.366 326.876 206.006 328.059 208.19 329.273C210.375 330.486 212.043 331.973 213.196 333.733C214.349 335.432 214.926 337.586 214.926 340.195ZM243.007 348.023C244.221 348.023 245.465 347.932 246.739 347.75C248.014 347.508 249.045 347.265 249.834 347.022V353.121C248.985 353.545 247.771 353.879 246.193 354.122C244.616 354.425 243.098 354.577 241.642 354.577C239.094 354.577 236.727 354.152 234.542 353.303C232.419 352.392 230.689 350.845 229.354 348.66C228.019 346.476 227.352 343.412 227.352 339.467V311.068H220.434V307.245L227.443 304.06L230.628 293.683H235.362V304.879H249.47V311.068H235.362V339.285C235.362 342.259 236.059 344.473 237.455 345.93C238.911 347.325 240.762 348.023 243.007 348.023ZM278.081 304.06C284.028 304.06 288.427 305.364 291.279 307.974C294.131 310.583 295.557 314.74 295.557 320.444V353.667H289.732L288.184 346.749H287.82C286.425 348.509 284.968 349.995 283.451 351.209C281.995 352.362 280.296 353.212 278.354 353.758C276.473 354.304 274.167 354.577 271.436 354.577C268.524 354.577 265.884 354.061 263.517 353.03C261.211 351.998 259.391 350.42 258.056 348.296C256.721 346.112 256.054 343.381 256.054 340.104C256.054 335.25 257.965 331.518 261.788 328.909C265.611 326.239 271.497 324.782 279.446 324.54L287.729 324.267V321.354C287.729 317.288 286.849 314.466 285.09 312.889C283.33 311.311 280.842 310.522 277.626 310.522C275.077 310.522 272.65 310.917 270.344 311.705C268.038 312.434 265.884 313.283 263.881 314.254L261.424 308.247C263.548 307.094 266.066 306.123 268.979 305.334C271.891 304.484 274.925 304.06 278.081 304.06ZM280.447 330.092C274.379 330.335 270.162 331.306 267.795 333.005C265.489 334.704 264.337 337.101 264.337 340.195C264.337 342.926 265.156 344.929 266.794 346.203C268.493 347.477 270.647 348.114 273.257 348.114C277.383 348.114 280.812 346.992 283.542 344.747C286.273 342.441 287.638 338.921 287.638 334.188V329.819L280.447 330.092ZM326.919 348.023C328.132 348.023 329.376 347.932 330.651 347.75C331.925 347.508 332.956 347.265 333.745 347.022V353.121C332.896 353.545 331.682 353.879 330.104 354.122C328.527 354.425 327.01 354.577 325.553 354.577C323.005 354.577 320.638 354.152 318.454 353.303C316.33 352.392 314.6 350.845 313.265 348.66C311.93 346.476 311.263 343.412 311.263 339.467V311.068H304.345V307.245L311.354 304.06L314.54 293.683H319.273V304.879H333.381V311.068H319.273V339.285C319.273 342.259 319.971 344.473 321.366 345.93C322.823 347.325 324.673 348.023 326.919 348.023ZM362.356 303.969C366.543 303.969 370.123 304.879 373.097 306.699C376.131 308.52 378.437 311.099 380.014 314.436C381.653 317.713 382.472 321.566 382.472 325.996V330.82H349.067C349.188 336.342 350.584 340.559 353.254 343.472C355.985 346.324 359.777 347.75 364.632 347.75C367.726 347.75 370.457 347.477 372.824 346.931C375.251 346.324 377.739 345.475 380.287 344.382V351.391C377.8 352.483 375.342 353.272 372.915 353.758C370.487 354.304 367.605 354.577 364.268 354.577C359.656 354.577 355.56 353.636 351.98 351.755C348.46 349.874 345.699 347.083 343.697 343.381C341.755 339.619 340.784 335.037 340.784 329.637C340.784 324.297 341.664 319.715 343.423 315.892C345.244 312.07 347.762 309.126 350.978 307.063C354.255 305 358.048 303.969 362.356 303.969ZM362.265 310.522C358.442 310.522 355.408 311.766 353.163 314.254C350.978 316.681 349.674 320.079 349.249 324.449H374.098C374.098 321.657 373.673 319.23 372.824 317.167C371.974 315.104 370.669 313.496 368.91 312.343C367.211 311.129 364.996 310.522 362.265 310.522Z" fill="#EF4444"/>
</svg>
