<svg width="32" height="32" viewBox="0 0 32 32" fill="none" xmlns="http://www.w3.org/2000/svg">
<rect width="32" height="32" fill="#18181B"/>
<path d="M7.17077 12.522H8.57593V14.5131C8.35595 14.5851 8.13409 14.6382 7.91033 14.6724C7.68656 14.7065 7.43246 14.7236 7.14801 14.7236C6.72704 14.7236 6.37243 14.6401 6.08419 14.4732C5.79595 14.3026 5.57598 14.0617 5.42428 13.7508C5.27637 13.436 5.20241 13.0643 5.20241 12.6357C5.20241 12.211 5.28585 11.8431 5.45272 11.5321C5.6196 11.2211 5.85853 10.9803 6.16953 10.8096C6.48431 10.6351 6.86357 10.5479 7.3073 10.5479C7.53486 10.5479 7.74914 10.5688 7.95015 10.6105C8.15495 10.6522 8.34458 10.711 8.51904 10.7868L8.32561 11.2306C8.1815 11.1661 8.01841 11.1111 7.83637 11.0656C7.65812 11.0201 7.47228 10.9973 7.27886 10.9973C6.95649 10.9973 6.67963 11.0637 6.44828 11.1964C6.21693 11.3292 6.04058 11.5188 5.91921 11.7653C5.79785 12.0081 5.73717 12.2982 5.73717 12.6357C5.73717 12.9581 5.78837 13.2444 5.89077 13.4948C5.99696 13.7413 6.16194 13.9347 6.3857 14.075C6.60947 14.2116 6.90339 14.2798 7.26748 14.2798C7.38884 14.2798 7.49504 14.276 7.58606 14.2684C7.68087 14.2571 7.76621 14.2438 7.84206 14.2286C7.9217 14.2134 7.99566 14.1983 8.06393 14.1831V12.9771H7.17077V12.522ZM10.6554 11.5605C10.9171 11.5605 11.1409 11.6174 11.3267 11.7312C11.5164 11.845 11.6605 12.0062 11.7591 12.2148C11.8615 12.4196 11.9127 12.6604 11.9127 12.9372V13.2388H9.82486C9.83244 13.5839 9.91967 13.8475 10.0865 14.0295C10.2572 14.2078 10.4943 14.2969 10.7977 14.2969C10.9911 14.2969 11.1617 14.2798 11.3097 14.2457C11.4614 14.2078 11.6169 14.1547 11.7761 14.0864V14.5244C11.6207 14.5927 11.4671 14.642 11.3153 14.6724C11.1636 14.7065 10.9835 14.7236 10.7749 14.7236C10.4867 14.7236 10.2307 14.6648 10.0069 14.5472C9.78693 14.4296 9.61437 14.2552 9.48921 14.0238C9.36785 13.7887 9.30717 13.5023 9.30717 13.1648C9.30717 12.831 9.36216 12.5447 9.47215 12.3058C9.58593 12.0668 9.74332 11.8829 9.94433 11.754C10.1491 11.625 10.3862 11.5605 10.6554 11.5605ZM10.6497 11.9701C10.4108 11.9701 10.2212 12.0479 10.0809 12.2034C9.94433 12.3551 9.86278 12.5675 9.83624 12.8405H11.3893C11.3893 12.6661 11.3628 12.5144 11.3097 12.3854C11.2566 12.2565 11.175 12.156 11.065 12.0839C10.9588 12.0081 10.8204 11.9701 10.6497 11.9701ZM13.7073 14.314C13.7831 14.314 13.8609 14.3083 13.9405 14.2969C14.0201 14.2817 14.0846 14.2665 14.1339 14.2514V14.6325C14.0808 14.6591 14.005 14.6799 13.9064 14.6951C13.8078 14.7141 13.7129 14.7236 13.6219 14.7236C13.4626 14.7236 13.3147 14.697 13.1782 14.6439C13.0455 14.587 12.9374 14.4903 12.8539 14.3538C12.7705 14.2172 12.7288 14.0257 12.7288 13.7792V12.0043H12.2964V11.7653L12.7345 11.5662L12.9336 10.9177H13.2294V11.6174H14.1112V12.0043H13.2294V13.7678C13.2294 13.9537 13.273 14.0921 13.3602 14.1831C13.4513 14.2703 13.5669 14.314 13.7073 14.314ZM17.4113 10.6048C17.7488 10.6048 18.0257 10.6484 18.2418 10.7356C18.4618 10.8191 18.6249 10.9461 18.7311 11.1168C18.8373 11.2875 18.8904 11.5017 18.8904 11.7596C18.8904 11.9758 18.8505 12.156 18.7709 12.3001C18.6913 12.4442 18.5889 12.5599 18.4637 12.6471C18.3423 12.7305 18.2134 12.7969 18.0769 12.8462L19.1919 14.6667H18.5945L17.6104 12.9884H16.8025V14.6667H16.2905V10.6048H17.4113ZM17.3828 11.0485H16.8025V12.5561H17.4113C17.6312 12.5561 17.8114 12.5276 17.9517 12.4708C18.092 12.4101 18.1944 12.3228 18.2589 12.2091C18.3272 12.0953 18.3613 11.9531 18.3613 11.7824C18.3613 11.6041 18.3253 11.4619 18.2532 11.3557C18.1849 11.2495 18.0788 11.1718 17.9346 11.1225C17.7905 11.0732 17.6066 11.0485 17.3828 11.0485ZM20.9388 11.5605C21.2005 11.5605 21.4242 11.6174 21.6101 11.7312C21.7997 11.845 21.9438 12.0062 22.0424 12.2148C22.1448 12.4196 22.196 12.6604 22.196 12.9372V13.2388H20.1082C20.1158 13.5839 20.203 13.8475 20.3699 14.0295C20.5405 14.2078 20.7776 14.2969 21.081 14.2969C21.2744 14.2969 21.4451 14.2798 21.593 14.2457C21.7447 14.2078 21.9002 14.1547 22.0595 14.0864V14.5244C21.904 14.5927 21.7504 14.642 21.5987 14.6724C21.447 14.7065 21.2668 14.7236 21.0582 14.7236C20.77 14.7236 20.514 14.6648 20.2902 14.5472C20.0703 14.4296 19.8977 14.2552 19.7725 14.0238C19.6512 13.7887 19.5905 13.5023 19.5905 13.1648C19.5905 12.831 19.6455 12.5447 19.7555 12.3058C19.8693 12.0668 20.0267 11.8829 20.2277 11.754C20.4325 11.625 20.6695 11.5605 20.9388 11.5605ZM20.9331 11.9701C20.6941 11.9701 20.5045 12.0479 20.3642 12.2034C20.2277 12.3551 20.1461 12.5675 20.1196 12.8405H21.6726C21.6726 12.6661 21.6461 12.5144 21.593 12.3854C21.5399 12.2565 21.4584 12.156 21.3484 12.0839C21.2422 12.0081 21.1037 11.9701 20.9331 11.9701ZM24.1271 11.5662C24.4988 11.5662 24.7738 11.6478 24.952 11.8108C25.1303 11.9739 25.2194 12.2337 25.2194 12.5902V14.6667H24.8553L24.7586 14.2343H24.7358C24.6486 14.3443 24.5576 14.4372 24.4628 14.5131C24.3718 14.5851 24.2656 14.6382 24.1442 14.6724C24.0266 14.7065 23.8825 14.7236 23.7118 14.7236C23.5298 14.7236 23.3648 14.6913 23.2169 14.6268C23.0728 14.5624 22.959 14.4638 22.8756 14.331C22.7921 14.1945 22.7504 14.0238 22.7504 13.819C22.7504 13.5156 22.8699 13.2824 23.1088 13.1193C23.3477 12.9524 23.7156 12.8614 24.2125 12.8462L24.7302 12.8292V12.6471C24.7302 12.393 24.6752 12.2166 24.5652 12.118C24.4552 12.0194 24.2997 11.9701 24.0987 11.9701C23.9394 11.9701 23.7877 11.9948 23.6436 12.0441C23.4995 12.0896 23.3648 12.1427 23.2397 12.2034L23.0861 11.8279C23.2188 11.7558 23.3762 11.6952 23.5582 11.6459C23.7403 11.5928 23.9299 11.5662 24.1271 11.5662ZM24.275 13.1932C23.8958 13.2084 23.6322 13.2691 23.4843 13.3753C23.3402 13.4815 23.2681 13.6313 23.2681 13.8247C23.2681 13.9954 23.3193 14.1205 23.4217 14.2002C23.5279 14.2798 23.6625 14.3196 23.8256 14.3196C24.0835 14.3196 24.2978 14.2495 24.4685 14.1092C24.6391 13.965 24.7245 13.7451 24.7245 13.4492V13.1762L24.275 13.1932ZM26.6618 14.6667H26.1612V10.3431H26.6618V14.6667ZM10.6243 22.6667H8.35444V18.6048H10.6243V19.0542H8.86644V20.3228H10.5219V20.7666H8.86644V22.2172H10.6243V22.6667ZM13.4327 21.8247C13.4327 22.0219 13.3834 22.1869 13.2848 22.3196C13.1862 22.4524 13.0459 22.5529 12.8638 22.6212C12.6818 22.6894 12.4656 22.7236 12.2153 22.7236C12.0029 22.7236 11.819 22.7065 11.6635 22.6724C11.5118 22.6382 11.3771 22.5908 11.2595 22.5301V22.075C11.3809 22.1357 11.5269 22.1926 11.6976 22.2457C11.8721 22.295 12.0484 22.3196 12.2267 22.3196C12.4808 22.3196 12.6647 22.2798 12.7785 22.2002C12.8923 22.1167 12.9491 22.0068 12.9491 21.8702C12.9491 21.7944 12.9283 21.7261 12.8866 21.6654C12.8449 21.6047 12.769 21.5441 12.659 21.4834C12.5528 21.4227 12.3992 21.3544 12.1982 21.2786C12.001 21.2027 11.8322 21.1269 11.6919 21.051C11.5516 20.9752 11.4435 20.8841 11.3676 20.778C11.2918 20.6718 11.2539 20.5352 11.2539 20.3684C11.2539 20.1105 11.3582 19.9113 11.5667 19.771C11.7791 19.6307 12.056 19.5605 12.3973 19.5605C12.5832 19.5605 12.7557 19.5795 12.915 19.6174C13.0781 19.6516 13.2298 19.7009 13.3701 19.7653L13.1995 20.1636C13.116 20.1256 13.0269 20.0934 12.9321 20.0668C12.8411 20.0365 12.7481 20.0137 12.6533 19.9986C12.5585 19.9796 12.4618 19.9701 12.3632 19.9701C12.1584 19.9701 12.001 20.0043 11.891 20.0725C11.7848 20.137 11.7317 20.2261 11.7317 20.3399C11.7317 20.4233 11.7564 20.4954 11.8057 20.5561C11.855 20.613 11.9365 20.6699 12.0503 20.7268C12.1679 20.7798 12.3234 20.8443 12.5168 20.9202C12.7102 20.9922 12.8752 21.0662 13.0117 21.142C13.1483 21.2179 13.2526 21.3108 13.3246 21.4208C13.3967 21.527 13.4327 21.6616 13.4327 21.8247ZM15.1878 22.314C15.2637 22.314 15.3414 22.3083 15.4211 22.2969C15.5007 22.2817 15.5652 22.2665 15.6145 22.2514V22.6325C15.5614 22.6591 15.4855 22.6799 15.3869 22.6951C15.2883 22.7141 15.1935 22.7236 15.1025 22.7236C14.9432 22.7236 14.7953 22.697 14.6587 22.6439C14.526 22.587 14.4179 22.4903 14.3345 22.3538C14.251 22.2172 14.2093 22.0257 14.2093 21.7792V20.0043H13.777V19.7653L14.215 19.5662L14.4141 18.9177H14.7099V19.6174H15.5917V20.0043H14.7099V21.7678C14.7099 21.9537 14.7536 22.0921 14.8408 22.1831C14.9318 22.2703 15.0475 22.314 15.1878 22.314ZM17.3799 19.5662C17.7516 19.5662 18.0265 19.6478 18.2048 19.8108C18.383 19.9739 18.4722 20.2337 18.4722 20.5902V22.6667H18.1081L18.0114 22.2343H17.9886C17.9014 22.3443 17.8104 22.4372 17.7155 22.5131C17.6245 22.5851 17.5183 22.6382 17.397 22.6724C17.2794 22.7065 17.1353 22.7236 16.9646 22.7236C16.7826 22.7236 16.6176 22.6913 16.4697 22.6268C16.3256 22.5624 16.2118 22.4638 16.1283 22.331C16.0449 22.1945 16.0032 22.0238 16.0032 21.819C16.0032 21.5156 16.1227 21.2824 16.3616 21.1193C16.6005 20.9524 16.9684 20.8614 17.4652 20.8462L17.9829 20.8292V20.6471C17.9829 20.393 17.9279 20.2166 17.8179 20.118C17.708 20.0194 17.5525 19.9701 17.3515 19.9701C17.1922 19.9701 17.0405 19.9948 16.8963 20.0441C16.7522 20.0896 16.6176 20.1427 16.4924 20.2034L16.3388 19.8279C16.4716 19.7558 16.629 19.6952 16.811 19.6459C16.9931 19.5928 17.1827 19.5662 17.3799 19.5662ZM17.5278 21.1932C17.1486 21.2084 16.885 21.2691 16.7371 21.3753C16.5929 21.4815 16.5209 21.6313 16.5209 21.8247C16.5209 21.9954 16.5721 22.1205 16.6745 22.2002C16.7807 22.2798 16.9153 22.3196 17.0784 22.3196C17.3363 22.3196 17.5506 22.2495 17.7212 22.1092C17.8919 21.965 17.9772 21.7451 17.9772 21.4492V21.1762L17.5278 21.1932ZM20.4323 22.314C20.5081 22.314 20.5859 22.3083 20.6655 22.2969C20.7451 22.2817 20.8096 22.2665 20.8589 22.2514V22.6325C20.8058 22.6591 20.73 22.6799 20.6314 22.6951C20.5328 22.7141 20.4379 22.7236 20.3469 22.7236C20.1876 22.7236 20.0397 22.697 19.9032 22.6439C19.7705 22.587 19.6624 22.4903 19.5789 22.3538C19.4955 22.2172 19.4538 22.0257 19.4538 21.7792V20.0043H19.0214V19.7653L19.4595 19.5662L19.6586 18.9177H19.9544V19.6174H20.8362V20.0043H19.9544V21.7678C19.9544 21.9537 19.998 22.0921 20.0852 22.1831C20.1763 22.2703 20.2919 22.314 20.4323 22.314ZM22.6471 19.5605C22.9088 19.5605 23.1326 19.6174 23.3184 19.7312C23.508 19.845 23.6521 20.0062 23.7507 20.2148C23.8531 20.4196 23.9043 20.6604 23.9043 20.9372V21.2388H21.8165C21.8241 21.5839 21.9113 21.8475 22.0782 22.0295C22.2489 22.2078 22.4859 22.2969 22.7893 22.2969C22.9827 22.2969 23.1534 22.2798 23.3013 22.2457C23.453 22.2078 23.6085 22.1547 23.7678 22.0864V22.5244C23.6123 22.5927 23.4587 22.642 23.307 22.6724C23.1553 22.7065 22.9752 22.7236 22.7666 22.7236C22.4783 22.7236 22.2223 22.6648 21.9986 22.5472C21.7786 22.4296 21.606 22.2552 21.4809 22.0238C21.3595 21.7887 21.2988 21.5023 21.2988 21.1648C21.2988 20.831 21.3538 20.5447 21.4638 20.3058C21.5776 20.0668 21.735 19.8829 21.936 19.754C22.1408 19.625 22.3778 19.5605 22.6471 19.5605ZM22.6414 19.9701C22.4025 19.9701 22.2129 20.0479 22.0725 20.2034C21.936 20.3551 21.8545 20.5675 21.8279 20.8405H23.381C23.381 20.6661 23.3544 20.5144 23.3013 20.3854C23.2482 20.2565 23.1667 20.156 23.0567 20.0839C22.9505 20.0081 22.8121 19.9701 22.6414 19.9701Z" fill="#EF4444"/>
</svg>
