<svg width="180" height="180" viewBox="0 0 180 180" fill="none" xmlns="http://www.w3.org/2000/svg">
<rect width="180" height="180" fill="#18181B"/>
<path d="M40.3365 67.936H48.2405V79.136C47.0032 79.5413 45.7552 79.84 44.4965 80.032C43.2378 80.224 41.8085 80.32 40.2085 80.32C37.8405 80.32 35.8458 79.8507 34.2245 78.912C32.6032 77.952 31.3658 76.5973 30.5125 74.848C29.6805 73.0773 29.2645 70.9867 29.2645 68.576C29.2645 66.1867 29.7338 64.1173 30.6725 62.368C31.6112 60.6187 32.9552 59.264 34.7045 58.304C36.4752 57.3227 38.6085 56.832 41.1045 56.832C42.3845 56.832 43.5898 56.9493 44.7205 57.184C45.8725 57.4187 46.9392 57.7493 47.9205 58.176L46.8325 60.672C46.0218 60.3093 45.1045 60 44.0805 59.744C43.0778 59.488 42.0325 59.36 40.9445 59.36C39.1312 59.36 37.5738 59.7333 36.2725 60.48C34.9712 61.2267 33.9792 62.2933 33.2965 63.68C32.6138 65.0453 32.2725 66.6773 32.2725 68.576C32.2725 70.3893 32.5605 72 33.1365 73.408C33.7338 74.7947 34.6618 75.8827 35.9205 76.672C37.1792 77.44 38.8325 77.824 40.8805 77.824C41.5632 77.824 42.1605 77.8027 42.6725 77.76C43.2058 77.696 43.6858 77.6213 44.1125 77.536C44.5605 77.4507 44.9765 77.3653 45.3605 77.28V70.496H40.3365V67.936ZM59.9378 62.528C61.4098 62.528 62.6684 62.848 63.7138 63.488C64.7804 64.128 65.5911 65.0347 66.1458 66.208C66.7218 67.36 67.0098 68.7147 67.0098 70.272V71.968H55.2658C55.3084 73.9093 55.7991 75.392 56.7378 76.416C57.6978 77.4187 59.0311 77.92 60.7378 77.92C61.8258 77.92 62.7858 77.824 63.6178 77.632C64.4711 77.4187 65.3458 77.12 66.2418 76.736V79.2C65.3671 79.584 64.5031 79.8613 63.6498 80.032C62.7964 80.224 61.7831 80.32 60.6098 80.32C58.9884 80.32 57.5484 79.9893 56.2898 79.328C55.0524 78.6667 54.0818 77.6853 53.3778 76.384C52.6951 75.0613 52.3538 73.4507 52.3538 71.552C52.3538 69.6747 52.6631 68.064 53.2818 66.72C53.9218 65.376 54.8071 64.3413 55.9378 63.616C57.0898 62.8907 58.4231 62.528 59.9378 62.528ZM59.9058 64.832C58.5618 64.832 57.4951 65.2693 56.7058 66.144C55.9378 66.9973 55.4791 68.192 55.3298 69.728H64.0658C64.0658 68.7467 63.9164 67.8933 63.6178 67.168C63.3191 66.4427 62.8604 65.8773 62.2418 65.472C61.6444 65.0453 60.8658 64.832 59.9058 64.832ZM77.1042 78.016C77.5309 78.016 77.9683 77.984 78.4163 77.92C78.8643 77.8347 79.2269 77.7493 79.5043 77.664V79.808C79.2056 79.9573 78.7789 80.0747 78.2243 80.16C77.6696 80.2667 77.1363 80.32 76.6243 80.32C75.7283 80.32 74.8963 80.1707 74.1283 79.872C73.3816 79.552 72.7736 79.008 72.3043 78.24C71.8349 77.472 71.6003 76.3947 71.6003 75.008V65.024H69.1683V63.68L71.6323 62.56L72.7523 58.912H74.4163V62.848H79.3763V65.024H74.4163V74.944C74.4163 75.9893 74.6616 76.768 75.1523 77.28C75.6643 77.7707 76.3149 78.016 77.1042 78.016ZM97.9392 57.152C99.8379 57.152 101.395 57.3973 102.611 57.888C103.849 58.3573 104.766 59.072 105.363 60.032C105.961 60.992 106.259 62.1973 106.259 63.648C106.259 64.864 106.035 65.8773 105.587 66.688C105.139 67.4987 104.563 68.1493 103.859 68.64C103.177 69.1093 102.451 69.4827 101.683 69.76L107.955 80H104.595L99.0593 70.56H94.5153V80H91.6353V57.152H97.9392ZM97.7793 59.648H94.5153V68.128H97.9392C99.1766 68.128 100.19 67.968 100.979 67.648C101.769 67.3067 102.345 66.816 102.707 66.176C103.091 65.536 103.283 64.736 103.283 63.776C103.283 62.7733 103.081 61.9733 102.675 61.376C102.291 60.7787 101.694 60.3413 100.883 60.064C100.073 59.7867 99.0379 59.648 97.7793 59.648ZM117.782 62.528C119.254 62.528 120.512 62.848 121.558 63.488C122.624 64.128 123.435 65.0347 123.99 66.208C124.566 67.36 124.854 68.7147 124.854 70.272V71.968H113.11C113.152 73.9093 113.643 75.392 114.582 76.416C115.542 77.4187 116.875 77.92 118.582 77.92C119.67 77.92 120.63 77.824 121.462 77.632C122.315 77.4187 123.19 77.12 124.086 76.736V79.2C123.211 79.584 122.347 79.8613 121.494 80.032C120.64 80.224 119.627 80.32 118.454 80.32C116.832 80.32 115.392 79.9893 114.134 79.328C112.896 78.6667 111.926 77.6853 111.222 76.384C110.539 75.0613 110.198 73.4507 110.198 71.552C110.198 69.6747 110.507 68.064 111.126 66.72C111.766 65.376 112.651 64.3413 113.782 63.616C114.934 62.8907 116.267 62.528 117.782 62.528ZM117.75 64.832C116.406 64.832 115.339 65.2693 114.55 66.144C113.782 66.9973 113.323 68.192 113.174 69.728H121.91C121.91 68.7467 121.76 67.8933 121.462 67.168C121.163 66.4427 120.704 65.8773 120.086 65.472C119.488 65.0453 118.71 64.832 117.75 64.832ZM135.716 62.56C137.807 62.56 139.353 63.0187 140.356 63.936C141.359 64.8533 141.86 66.3147 141.86 68.32V80H139.812L139.268 77.568H139.14C138.649 78.1867 138.137 78.7093 137.604 79.136C137.092 79.5413 136.495 79.84 135.812 80.032C135.151 80.224 134.34 80.32 133.38 80.32C132.356 80.32 131.428 80.1387 130.596 79.776C129.785 79.4133 129.145 78.8587 128.676 78.112C128.207 77.344 127.972 76.384 127.972 75.232C127.972 73.5253 128.644 72.2133 129.988 71.296C131.332 70.3573 133.401 69.8453 136.196 69.76L139.108 69.664V68.64C139.108 67.2107 138.799 66.2187 138.18 65.664C137.561 65.1093 136.687 64.832 135.556 64.832C134.66 64.832 133.807 64.9707 132.996 65.248C132.185 65.504 131.428 65.8027 130.724 66.144L129.86 64.032C130.607 63.6267 131.492 63.2853 132.516 63.008C133.54 62.7093 134.607 62.56 135.716 62.56ZM136.548 71.712C134.415 71.7973 132.932 72.1387 132.1 72.736C131.289 73.3333 130.884 74.176 130.884 75.264C130.884 76.224 131.172 76.928 131.748 77.376C132.345 77.824 133.103 78.048 134.02 78.048C135.471 78.048 136.676 77.6533 137.636 76.864C138.596 76.0533 139.076 74.816 139.076 73.152V71.616L136.548 71.712ZM149.974 80H147.158V55.68H149.974V80ZM59.7626 124H46.9946V101.152H59.7626V103.68H49.8746V110.816H59.1866V113.312H49.8746V121.472H59.7626V124ZM75.5599 119.264C75.5599 120.373 75.2825 121.301 74.7279 122.048C74.1732 122.795 73.3839 123.36 72.3599 123.744C71.3359 124.128 70.1199 124.32 68.7119 124.32C67.5172 124.32 66.4825 124.224 65.6079 124.032C64.7545 123.84 63.9972 123.573 63.3359 123.232V120.672C64.0185 121.013 64.8399 121.333 65.7999 121.632C66.7812 121.909 67.7732 122.048 68.7759 122.048C70.2052 122.048 71.2399 121.824 71.8799 121.376C72.5199 120.907 72.8399 120.288 72.8399 119.52C72.8399 119.093 72.7225 118.709 72.4879 118.368C72.2532 118.027 71.8265 117.685 71.2079 117.344C70.6105 117.003 69.7465 116.619 68.6159 116.192C67.5065 115.765 66.5572 115.339 65.7679 114.912C64.9785 114.485 64.3705 113.973 63.9439 113.376C63.5172 112.779 63.3039 112.011 63.3039 111.072C63.3039 109.621 63.8905 108.501 65.0639 107.712C66.2585 106.923 67.8159 106.528 69.7359 106.528C70.7812 106.528 71.7519 106.635 72.6479 106.848C73.5652 107.04 74.4185 107.317 75.2079 107.68L74.2479 109.92C73.7785 109.707 73.2772 109.525 72.7439 109.376C72.2319 109.205 71.7092 109.077 71.1759 108.992C70.6425 108.885 70.0985 108.832 69.5439 108.832C68.3919 108.832 67.5065 109.024 66.8879 109.408C66.2905 109.771 65.9919 110.272 65.9919 110.912C65.9919 111.381 66.1305 111.787 66.4079 112.128C66.6852 112.448 67.1439 112.768 67.7839 113.088C68.4452 113.387 69.3199 113.749 70.4079 114.176C71.4959 114.581 72.4239 114.997 73.1919 115.424C73.9599 115.851 74.5465 116.373 74.9519 116.992C75.3572 117.589 75.5599 118.347 75.5599 119.264ZM85.4324 122.016C85.859 122.016 86.2964 121.984 86.7444 121.92C87.1924 121.835 87.555 121.749 87.8324 121.664V123.808C87.5337 123.957 87.107 124.075 86.5524 124.16C85.9977 124.267 85.4644 124.32 84.9524 124.32C84.0564 124.32 83.2244 124.171 82.4564 123.872C81.7097 123.552 81.1017 123.008 80.6324 122.24C80.163 121.472 79.9284 120.395 79.9284 119.008V109.024H77.4964V107.68L79.9604 106.56L81.0804 102.912H82.7444V106.848H87.7044V109.024H82.7444V118.944C82.7444 119.989 82.9897 120.768 83.4804 121.28C83.9924 121.771 84.643 122.016 85.4324 122.016ZM97.7629 106.56C99.8535 106.56 101.4 107.019 102.403 107.936C103.406 108.853 103.907 110.315 103.907 112.32V124H101.859L101.315 121.568H101.187C100.696 122.187 100.184 122.709 99.6509 123.136C99.1389 123.541 98.5415 123.84 97.8589 124.032C97.1975 124.224 96.3869 124.32 95.4269 124.32C94.4029 124.32 93.4749 124.139 92.6429 123.776C91.8322 123.413 91.1922 122.859 90.7229 122.112C90.2535 121.344 90.0189 120.384 90.0189 119.232C90.0189 117.525 90.6909 116.213 92.0349 115.296C93.3789 114.357 95.4482 113.845 98.2429 113.76L101.155 113.664V112.64C101.155 111.211 100.846 110.219 100.227 109.664C99.6082 109.109 98.7335 108.832 97.6029 108.832C96.7069 108.832 95.8535 108.971 95.0429 109.248C94.2322 109.504 93.4749 109.803 92.7709 110.144L91.9069 108.032C92.6535 107.627 93.5389 107.285 94.5629 107.008C95.5869 106.709 96.6535 106.56 97.7629 106.56ZM98.5949 115.712C96.4615 115.797 94.9789 116.139 94.1469 116.736C93.3362 117.333 92.9309 118.176 92.9309 119.264C92.9309 120.224 93.2189 120.928 93.7949 121.376C94.3922 121.824 95.1495 122.048 96.0669 122.048C97.5175 122.048 98.7229 121.653 99.6829 120.864C100.643 120.053 101.123 118.816 101.123 117.152V115.616L98.5949 115.712ZM114.932 122.016C115.359 122.016 115.796 121.984 116.244 121.92C116.692 121.835 117.055 121.749 117.332 121.664V123.808C117.034 123.957 116.607 124.075 116.052 124.16C115.498 124.267 114.964 124.32 114.452 124.32C113.556 124.32 112.724 124.171 111.956 123.872C111.21 123.552 110.602 123.008 110.132 122.24C109.663 121.472 109.428 120.395 109.428 119.008V109.024H106.996V107.68L109.46 106.56L110.58 102.912H112.244V106.848H117.204V109.024H112.244V118.944C112.244 119.989 112.49 120.768 112.98 121.28C113.492 121.771 114.143 122.016 114.932 122.016ZM127.391 106.528C128.863 106.528 130.122 106.848 131.167 107.488C132.234 108.128 133.044 109.035 133.599 110.208C134.175 111.36 134.463 112.715 134.463 114.272V115.968H122.719C122.762 117.909 123.252 119.392 124.191 120.416C125.151 121.419 126.484 121.92 128.191 121.92C129.279 121.92 130.239 121.824 131.071 121.632C131.924 121.419 132.799 121.12 133.695 120.736V123.2C132.82 123.584 131.956 123.861 131.103 124.032C130.25 124.224 129.236 124.32 128.063 124.32C126.442 124.32 125.002 123.989 123.743 123.328C122.506 122.667 121.535 121.685 120.831 120.384C120.148 119.061 119.807 117.451 119.807 115.552C119.807 113.675 120.116 112.064 120.735 110.72C121.375 109.376 122.26 108.341 123.391 107.616C124.543 106.891 125.876 106.528 127.391 106.528ZM127.359 108.832C126.015 108.832 124.948 109.269 124.159 110.144C123.391 110.997 122.932 112.192 122.783 113.728H131.519C131.519 112.747 131.37 111.893 131.071 111.168C130.772 110.443 130.314 109.877 129.695 109.472C129.098 109.045 128.319 108.832 127.359 108.832Z" fill="#EF4444"/>
</svg>
